<?xml version="1.0" encoding="UTF-8"?>
<!DOCTYPE svg PUBLIC "-//W3C//DTD SVG 1.1//EN" "http://www.w3.org/Graphics/SVG/1.1/DTD/svg11.dtd">
<!-- Creator: CorelDRAW 2019 (64-Bit) -->
<svg xmlns="http://www.w3.org/2000/svg" xml:space="preserve" width="210mm" height="297mm" version="1.1" style="shape-rendering:geometricPrecision; text-rendering:geometricPrecision; image-rendering:optimizeQuality; fill-rule:evenodd; clip-rule:evenodd"
viewBox="0 0 21000 29700"
 xmlns:xlink="http://www.w3.org/1999/xlink"
 xmlns:xodm="http://www.corel.com/coreldraw/odm/2003">
 <defs>
  <style type="text/css">
   <![CDATA[
    .fil0 {fill:#000001}
    .fil3 {fill:#505050}
    .fil2 {fill:#663300}
    .fil1 {fill:url(#id0)}
   ]]>
  </style>
  <linearGradient id="id0" gradientUnits="userSpaceOnUse" x1="11773.71" y1="15002.95" x2="11793.55" y2="15671.03">
   <stop offset="0" style="stop-opacity:1; stop-color:#4EB021"/>
   <stop offset="0.780392" style="stop-opacity:1; stop-color:#A6D790"/>
   <stop offset="1" style="stop-opacity:1; stop-color:white"/>
  </linearGradient>
 </defs>
 <g id="Layer_x0020_1">
  <metadata id="CorelCorpID_0Corel-Layer"/>
  <g id="_2088033059920">
   <path class="fil0" d="M12171 16308.02c-63.35,46.84 -475.26,36.86 -583.76,24.2 -115.08,-13.43 -91.45,-98.74 -102.29,-203.54 -9.32,-90.21 -20.64,-173.73 -27.38,-264.05l782.91 1.18c-8.83,108.25 -15.03,376.38 -69.48,442.21zm-582 -1093.78c41.73,-214.85 298.82,-298.71 452.74,-135.01 110.48,117.5 83.64,449.99 71.7,640.28 -42.35,41.06 -485.52,21.97 -531.73,13.5 -23.2,-62.98 -28.39,-463 7.29,-518.77zm664.53 111.54c-5.32,-57.65 -11.39,-103.78 -18.28,-159.74 -18.58,-151.02 184.86,-123.49 131.89,-287.91 -118.91,-37.66 -132.57,58.67 -219.24,115.79 -58.86,-82.02 -141.58,-80.43 -232.82,-137.82 0,-146.82 44.01,-286.05 -126.7,-247.17l-10.38 252.59c-131.22,68.54 -128.09,32.83 -227.69,135.68 -62.2,-46.5 -120.85,-159.61 -208.42,-119.59 -60.52,90.66 84.55,188.83 127.6,221.69l-28.34 231.92c-81.14,0 -269.69,-34.67 -256.94,75.61 10.24,88.59 189.9,56.59 262.87,56.58l0.72 266.93c-150.96,0.94 -142.03,14 -122.81,171.47 44.09,361.02 4.14,562.64 281.5,562.64 652.85,0 696.48,66.39 740.04,-333.82 9.84,-90.42 23.07,-180.31 31.51,-271.07 4.96,-53.33 14.38,-77.79 -19.08,-109.14 -30.39,-28.48 -18.99,-10.4 -48.9,-20.87l-44.66 -15.2c-2.83,-6.42 -10.53,-3.24 -15.64,-6.12l3.81 -244.81c85.08,0 187.11,7.5 255.74,-19.75l-2.16 -93.63c-82.95,-34.27 -156.53,-9.75 -253.62,-24.26z"/>
   <path class="fil1" d="M11589 15214.24l-1.87 510.52 526.31 -5.25c11.94,-190.29 38.78,-522.78 -71.7,-640.28 -153.92,-163.7 -411.01,-79.84 -452.74,135.01z"/>
   <path class="fil2" d="M12171 16308.02c54.45,-65.83 60.65,-333.96 69.48,-442.21l-782.91 -1.18c6.74,90.32 18.06,173.84 27.38,264.05 10.84,104.8 -12.79,190.11 102.29,203.54 108.5,12.66 520.41,22.64 583.76,-24.2z"/>
   <path class="fil3" d="M12113.44 15719.51l-526.31 5.25 1.87 -510.52c-35.68,55.77 -30.49,455.79 -7.29,518.77 46.21,8.47 489.38,27.56 531.73,-13.5z"/>
  </g>
 </g>
</svg>
