<?xml version="1.0" encoding="UTF-8"?>
<!DOCTYPE svg PUBLIC "-//W3C//DTD SVG 1.1//EN" "http://www.w3.org/Graphics/SVG/1.1/DTD/svg11.dtd">
<!-- Creator: CorelDRAW 2019 (64-Bit) -->
<svg xmlns="http://www.w3.org/2000/svg" xml:space="preserve" width="330mm" height="210mm" version="1.1" style="shape-rendering:geometricPrecision; text-rendering:geometricPrecision; image-rendering:optimizeQuality; fill-rule:evenodd; clip-rule:evenodd"
viewBox="0 0 33000 21000"
 xmlns:xlink="http://www.w3.org/1999/xlink"
 xmlns:xodm="http://www.corel.com/coreldraw/odm/2003">
 <defs>
  <style type="text/css">
   <![CDATA[
    .fil2 {fill:#F2D335}
    .fil1 {fill:#000001}
    .fil0 {fill:url(#id0)}
   ]]>
  </style>
  <radialGradient id="id0" gradientUnits="userSpaceOnUse" gradientTransform="matrix(0.00060033 1.17432 -2.10991 0.116789 39273 -21421)" cx="23771.91" cy="7353.63" r="799.56" fx="23771.91" fy="7353.63">
   <stop offset="0" style="stop-opacity:1; stop-color:#E40082"/>
   <stop offset="1" style="stop-opacity:1; stop-color:white"/>
  </radialGradient>
 </defs>
 <g id="Layer_x0020_1">
  <metadata id="CorelCorpID_0Corel-Layer"/>
  <g id="_2087923619184">
   <path class="fil0" d="M23709.4 7122.52c340.51,-110.16 484.62,382.7 172.31,498.27 -326.9,120.97 -530.94,-382.23 -172.31,-498.27zm367.15 -136.7c-60.1,-101.15 57.46,-299.06 -168.93,-395.56 -166.32,-70.89 -308.96,12.22 -366.33,125.11 -54.21,106.67 -2.47,185.76 -30.77,249.33 -37.37,83.94 -116.83,-1.55 -194.26,-14.31 -362.15,-59.69 -466.36,462.89 -96.87,538.35 244.02,49.83 -20.98,132.03 -29.81,326.14 -7.42,162.78 115.3,285.78 269.47,289.4 240.17,5.65 212.34,-184.72 335.27,-224.35 41.31,2.08 219.15,395.23 501.43,154.21 253.35,-216.32 -68.86,-421.37 -26.26,-497.1 35.75,-63.58 35.1,-26.51 139.77,-60.1 152.46,-48.94 209.1,-218.18 162.14,-350.95 -108.22,-305.94 -423.56,-103.41 -494.85,-140.17z"/>
   <path class="fil1" d="M24076.55 6985.82c71.29,36.76 386.63,-165.77 494.85,140.17 46.96,132.77 -9.68,302.01 -162.14,350.95 -104.67,33.59 -104.02,-3.48 -139.77,60.1 -42.6,75.73 279.61,280.78 26.26,497.1 -282.28,241.02 -460.12,-152.13 -501.43,-154.21 -122.93,39.63 -95.1,230 -335.27,224.35 -154.17,-3.62 -276.89,-126.62 -269.47,-289.4 8.83,-194.11 273.83,-276.31 29.81,-326.14 -369.49,-75.46 -265.28,-598.04 96.87,-538.35 77.43,12.76 156.89,98.25 194.26,14.31 28.3,-63.57 -23.44,-142.66 30.77,-249.33 57.37,-112.89 200.01,-196 366.33,-125.11 226.39,96.5 108.83,294.41 168.93,395.56zm383.69 609.69c168.25,-43.78 311.67,-261.32 243.58,-495.9 -43.54,-150.01 -255.93,-359.69 -475.22,-273.65 -41.32,-35.23 -10.76,25.95 -42.65,-75.7 -11.11,-35.41 -7.6,-43.31 -23.1,-80.3 -16.41,-39.15 -58.71,-98 -77.03,-116.77 -211.19,-216.34 -657.75,-155.78 -708.18,262.91 -94.62,8.53 -398.44,-41.52 -502.23,273.87 -89.9,273.2 89.54,421.91 242,517.65 -256.62,521.67 400.6,839.94 650.51,481.85 76.41,33.26 288.15,272.93 584.96,72.34 250.8,-169.49 156.87,-416.71 107.36,-566.3z"/>
   <path class="fil1" d="M23763.38 7246c162.06,-35.8 217.47,212.23 62.46,251.19 -180.53,45.37 -249.44,-209.88 -62.46,-251.19zm-53.98 -123.48c-358.63,116.04 -154.59,619.24 172.31,498.27 312.31,-115.57 168.2,-608.43 -172.31,-498.27z"/>
   <path class="fil2" d="M23763.38 7246c-186.98,41.31 -118.07,296.56 62.46,251.19 155.01,-38.96 99.6,-286.99 -62.46,-251.19z"/>
  </g>
 </g>
</svg>
