<?xml version="1.0" encoding="UTF-8"?>
<!DOCTYPE svg PUBLIC "-//W3C//DTD SVG 1.1//EN" "http://www.w3.org/Graphics/SVG/1.1/DTD/svg11.dtd">
<!-- Creator: CorelDRAW 2019 (64-Bit) -->
<svg xmlns="http://www.w3.org/2000/svg" xml:space="preserve" width="210mm" height="297mm" version="1.1" style="shape-rendering:geometricPrecision; text-rendering:geometricPrecision; image-rendering:optimizeQuality; fill-rule:evenodd; clip-rule:evenodd"
viewBox="0 0 21000 29700"
 xmlns:xlink="http://www.w3.org/1999/xlink"
 xmlns:xodm="http://www.corel.com/coreldraw/odm/2003">
 <defs>
  <style type="text/css">
   <![CDATA[
    .str0 {stroke:#332C2B;stroke-width:20;stroke-miterlimit:22.9256}
    .fil2 {fill:none}
    .fil1 {fill:#000001}
    .fil0 {fill:white}
    .fil3 {fill:url(#id0)}
   ]]>
  </style>
  <linearGradient id="id0" gradientUnits="userSpaceOnUse" x1="9216.92" y1="14326.02" x2="9236.76" y2="14984.17">
   <stop offset="0" style="stop-opacity:1; stop-color:#FCFCFC"/>
   <stop offset="0.701961" style="stop-opacity:1; stop-color:#8DF985"/>
   <stop offset="1" style="stop-opacity:1; stop-color:#1EF50E"/>
  </linearGradient>
 </defs>
 <g id="Layer_x0020_1">
  <metadata id="CorelCorpID_0Corel-Layer"/>
  <g id="_1536443003264">
   <path class="fil0" d="M9004.81 14388.22c2.42,430.62 100.26,736.61 573.57,698.13 -63.76,-223.08 -403.87,-531.92 -398.09,-641.73 62.58,1.43 44.73,-15.45 143.62,116.64 40.69,54.34 74.34,97.5 113.81,150.67 54.22,73.03 166.36,278.26 212.32,322.61 336.83,-602.37 -540.51,-808.55 -629.58,-803.78l-15.65 157.46z"/>
   <path class="fil1" d="M9020.46 14230.76c89.07,-4.77 966.41,201.41 629.58,803.78 -45.96,-44.35 -158.1,-249.58 -212.32,-322.61 -39.47,-53.17 -73.12,-96.33 -113.81,-150.67 -98.89,-132.09 -81.04,-115.21 -143.62,-116.64 -5.78,109.81 334.33,418.65 398.09,641.73 -473.31,38.48 -571.15,-267.51 -573.57,-698.13l15.65 -157.46zm-86.07 175.29c0,397.52 108.67,748.17 526.71,758.39 181.42,4.44 221.49,-16.05 280.34,-143.63 291.07,-631.02 -583.1,-876.87 -746.27,-861.71 -42.54,58.94 -38.05,16.81 -53.43,93.65 -7.63,38.07 -7.35,112.54 -7.35,153.3z"/>
  </g>
  <path class="fil2 str0" d="M9578.38 15086.35c-63.76,-223.08 -403.87,-531.92 -398.09,-641.73 62.58,1.43 44.73,-15.45 143.62,116.64 40.69,54.34 74.34,97.5 113.81,150.67 54.22,73.03 166.36,278.26 212.32,322.61 336.83,-602.37 -540.51,-808.55 -629.58,-803.78l-15.65 157.46c2.42,430.62 100.26,736.61 573.57,698.13z"/>
  <path class="fil3 str0" d="M9180.29 14444.62c62.58,1.43 44.73,-15.45 143.62,116.64 40.69,54.34 74.34,97.5 113.81,150.67 54.22,73.03 166.36,278.26 212.32,322.61 336.83,-602.37 -540.51,-808.55 -629.58,-803.78l-15.65 157.46c2.42,430.62 100.26,736.61 573.57,698.13 -63.76,-223.08 -403.87,-531.92 -398.09,-641.73z"/>
 </g>
</svg>
