<?xml version="1.0" standalone="no"?>
<!DOCTYPE svg PUBLIC "-//W3C//DTD SVG 20010904//EN"
 "http://www.w3.org/TR/2001/REC-SVG-20010904/DTD/svg10.dtd">
<svg version="1.0" xmlns="http://www.w3.org/2000/svg"
 width="755.000000pt" height="156.000000pt" viewBox="0 0 755.000000 156.000000"
 preserveAspectRatio="xMidYMid meet">

<g transform="translate(0.000000,156.000000) scale(0.100000,-0.100000)"
fill="#000000" stroke="none">
<path d="M608 1279 c-20 -22 -36 -29 -65 -29 -62 -1 -195 -28 -210 -43 -17
-17 -8 -44 19 -53 31 -9 88 -64 108 -104 18 -36 18 -37 -6 -130 -26 -98 -42
-258 -31 -303 8 -29 31 -41 57 -27 39 21 72 181 69 335 -2 105 -2 105 40 190
l42 85 97 0 c71 0 103 -4 119 -15 28 -20 53 -9 53 22 0 34 -51 53 -145 53 -73
0 -75 1 -75 25 0 35 -37 32 -72 -6z m-72 -134 c-12 -24 -23 -44 -26 -45 -3 0
-14 14 -23 30 -10 17 -22 30 -28 30 -5 0 -9 4 -9 9 0 9 28 15 86 19 l21 2 -21
-45z"/>
<path d="M1013 1271 c-85 -52 -174 -261 -208 -490 -24 -158 12 -176 85 -43 25
45 55 94 68 109 l22 28 -7 -50 c-16 -109 -1 -146 66 -165 78 -22 204 0 320 55
41 20 74 34 75 33 28 -74 72 -98 181 -98 97 0 174 19 275 66 117 55 170 92
170 119 0 13 -6 25 -12 28 -7 2 -52 -19 -99 -47 -112 -68 -201 -98 -311 -104
-70 -3 -93 -1 -113 12 -33 22 -32 44 3 51 55 12 114 48 130 82 46 96 -85 129
-166 42 -87 -95 -104 -108 -178 -139 -95 -39 -187 -56 -240 -43 l-39 9 0 89 0
90 -32 16 -32 16 40 54 c95 127 128 242 80 280 -29 24 -38 24 -78 0z m16 -133
c-21 -43 -106 -168 -114 -168 -6 0 31 103 53 147 12 22 34 55 49 74 26 30 28
31 31 12 2 -12 -7 -41 -19 -65z m576 -258 c-10 -16 -66 -42 -73 -35 -10 10 37
45 60 45 10 0 16 -5 13 -10z"/>
<path d="M3085 1004 c-10 -11 -15 -30 -14 -54 3 -30 -4 -45 -37 -84 -50 -60
-135 -102 -312 -155 -129 -38 -133 -38 -128 -17 3 11 10 54 17 94 10 61 10 75
-1 82 -9 5 -1 8 21 7 28 -2 35 2 37 21 5 33 -54 57 -106 43 -124 -34 -233
-216 -163 -272 27 -22 57 -24 91 -4 34 19 39 18 33 -5 -3 -12 -22 -29 -42 -40
-102 -51 -201 -186 -201 -272 0 -45 35 -88 72 -88 65 0 144 104 193 255 l28
84 76 25 c42 13 110 34 151 46 147 43 265 110 302 171 27 44 42 25 39 -50 -5
-115 42 -157 168 -148 84 5 140 22 249 74 41 19 74 33 75 31 45 -89 69 -101
207 -95 106 5 155 17 265 68 63 29 63 29 78 0 25 -49 62 -66 155 -69 102 -4
181 13 291 64 41 19 74 34 75 34 1 0 -1 -24 -2 -54 -3 -43 0 -54 13 -60 25 -9
30 -4 81 94 26 50 56 97 66 106 16 16 17 14 12 -32 -21 -176 162 -218 380 -88
32 19 59 33 60 32 32 -76 72 -98 181 -98 45 0 108 7 140 15 106 27 305 131
305 159 0 17 35 48 43 39 4 -3 7 -37 7 -75 0 -77 15 -110 61 -134 63 -32 200
-10 347 56 l62 29 0 -25 c0 -28 32 -64 58 -64 20 0 54 21 95 58 30 28 32 24
17 -28 -8 -28 -23 -43 -76 -75 -159 -97 -244 -258 -170 -322 15 -13 37 -23 50
-23 26 0 89 40 117 73 29 35 85 147 105 209 l17 58 111 36 c229 76 386 158
386 200 0 36 -27 36 -83 0 -82 -53 -126 -72 -266 -120 -126 -44 -131 -44 -126
-23 34 149 45 221 37 229 -20 20 -46 2 -79 -53 -36 -63 -118 -157 -127 -148
-9 9 12 60 34 84 16 18 24 48 21 83 -2 27 -46 11 -72 -26 -19 -28 -49 -49
-120 -84 -155 -77 -266 -98 -318 -62 -22 16 -23 22 -18 85 5 63 4 71 -19 98
-15 19 -24 41 -24 65 0 34 -19 56 -49 56 -23 0 -42 -34 -40 -70 8 -107 -228
-240 -428 -240 -71 0 -113 17 -113 45 0 8 12 17 28 20 55 12 114 48 130 82 46
96 -85 129 -166 42 -86 -93 -104 -108 -186 -148 -106 -53 -187 -65 -226 -33
-23 18 -25 26 -22 86 1 37 -2 75 -8 86 -21 39 -66 34 -116 -12 -14 -13 -24
-16 -29 -9 -12 21 -44 11 -59 -17 -17 -32 -154 -102 -251 -127 -88 -22 -186
-20 -219 6 -14 11 -26 24 -26 29 0 4 23 14 51 20 53 13 113 57 124 90 6 20
-10 59 -29 72 -6 4 -27 8 -47 8 -46 0 -95 -33 -132 -88 -51 -76 -243 -152
-384 -152 -70 0 -113 17 -113 45 0 7 15 17 33 20 81 18 137 65 137 116 0 88
-139 75 -203 -19 -33 -49 -122 -102 -241 -143 -101 -36 -177 -38 -207 -8 -19
19 -21 29 -15 84 6 58 4 66 -19 93 -16 20 -25 42 -25 66 0 25 -6 38 -19 46
-27 14 -37 13 -56 -6z m725 -119 c0 -6 -62 -45 -72 -45 -18 0 -6 20 20 34 27
15 52 20 52 11z m530 -5 c0 -11 -53 -40 -72 -40 -18 1 39 50 58 50 8 0 14 -4
14 -10z m1145 0 c-10 -16 -66 -42 -73 -35 -10 10 37 45 60 45 10 0 16 -5 13
-10z m-2910 -8 c-5 -4 -23 -33 -39 -66 -32 -63 -88 -111 -94 -81 -9 39 92 155
133 155 7 0 7 -3 0 -8z m4008 -349 c-44 -106 -85 -168 -125 -189 -36 -19 -38
-18 -38 10 0 39 16 72 57 117 32 35 108 99 119 99 2 0 -4 -17 -13 -37z m-4113
-35 c-40 -107 -111 -193 -126 -153 -12 30 28 109 83 164 29 30 56 52 58 49 3
-3 -3 -30 -15 -60z"/>
</g>
</svg>
